<svg width="32" height="27" viewBox="0 0 32 27" fill="none" xmlns="http://www.w3.org/2000/svg">
<path d="M3.92892 17.7759C5.58996 13.8593 4.90966 10.4464 4.90966 6.38746C4.90966 5.59786 4.76639 3.19264 5.59617 2.76216C6.90478 2.08326 8.12766 1.63025 9.67165 1.63025C10.6981 1.63025 11.7295 1.65982 12.7555 1.63025C13.7817 1.60067 14.7757 1.18324 15.7903 1.05896C17.6781 0.827717 19.6416 1.14972 21.5058 1.14972C22.9859 1.14972 24.5171 1.34193 25.9409 1.34193C26.1936 1.34193 27.2241 1.46246 27.3902 1.60889C27.8984 2.05707 27.7528 2.77581 28.153 3.16793" stroke="#00ADB5" stroke-linecap="round" stroke-linejoin="round"/>
<path d="M28.0554 3.51503C28.12 4.67084 28.1442 6.29276 28.6197 7.42213C28.9279 8.15399 28.6822 9.12801 28.7445 9.90749C28.8642 11.4038 28.6414 12.8622 28.6414 14.3138C28.6414 16.2612 28.7391 18.1835 28.7391 20.1202C28.7391 21.7825 27.1149 21.5042 25.8305 21.2706C24.7209 21.0689 23.2318 21.4734 22.0753 21.4877C19.8442 21.5153 17.6027 21.6831 15.3681 21.6831C13.5019 21.6831 12.116 21.1411 10.3974 20.4892C9.47968 20.1411 8.92496 20.2179 7.93919 20.2179C7.00557 20.2179 6.23781 20.0719 5.3019 20.3644C4.75434 20.5355 3.77375 20.3878 3.4623 19.8272C3.08885 19.155 3.83131 18.8635 3.83131 18.3132C3.83131 17.8512 3.77323 16.53 3.92898 17.776" stroke="#00ADB5" stroke-linecap="round" stroke-linejoin="round"/>
<path d="M15.0643 6.05465C15.0643 6.05465 15.455 6.25001 15.8458 6.64072C16.2365 6.93378 17.0589 6.78726 17.7505 6.78726C18.1144 6.78726 18.4986 6.50358 18.8249 6.35857C19.4859 6.0648 19.0917 6.61734 18.9335 6.93378C18.7583 7.28406 18.9583 7.93529 19.2753 8.15475C19.7983 8.51684 20.3158 8.20431 20.8273 7.94854C21.0397 7.84236 20.9814 7.79311 21.0471 7.93769C21.1362 8.13377 21.1203 8.4183 21.1203 8.63228C21.1203 9.11923 21.0884 9.92825 20.8273 10.3525C20.4839 10.9105 20.1369 11.2718 19.5846 11.682C19.0391 12.0873 18.3183 12.7944 17.5931 12.7944C16.176 12.7944 14.6719 12.4856 13.9627 11.1068C13.6622 10.5223 13.1108 10.0438 13.1108 9.37569C13.1108 8.81828 12.9263 8.15033 13.1108 7.6175C13.3344 6.97162 13.8922 6.35857 13.6969 6.35857C13.7965 6.38703 14.6736 5.8593 15.0643 6.05465Z" stroke="#00ADB5" stroke-linecap="round" stroke-linejoin="round"/>
<path d="M16.676 5.71277C17.2256 5.50938 18.4807 5.08325 18.7761 4.41854C19.0044 3.90484 18.2498 3.80806 17.8482 3.80806C17.3611 3.80806 16.7839 4.48122 16.6543 4.90693C16.5823 5.14367 16.5138 5.38596 16.4427 5.62595C16.4084 5.74164 16.4542 5.82551 16.478 5.93255C16.4961 6.01407 17.2413 5.62282 17.2133 5.51076" stroke="#00ADB5" stroke-linecap="round" stroke-linejoin="round"/>
<path d="M26.3466 16.7036L4.91937 17.1742C2.63164 17.2244 0.803284 19.0934 0.803284 21.3817C0.803284 23.706 2.68749 25.5902 5.01178 25.5902H26.4441C28.8984 25.5902 30.888 23.6006 30.888 21.1463C30.888 18.6539 28.8384 16.6488 26.3466 16.7036Z" stroke="#00ADB5"/>
<path d="M9.65646 17.0562C9.98087 17.5592 10.2609 18.1629 10.6332 18.6281C10.8204 18.8622 10.7903 18.8146 11.1533 18.6802C11.7592 18.4558 12.4457 18.6166 13.0778 18.6166C13.6328 18.6166 14.278 18.3269 14.8174 18.4721C15.4422 18.6403 16.1789 18.3191 16.7939 18.3045C17.535 18.2869 18.2414 18.3565 18.9785 18.3565C19.4228 18.3565 19.856 18.0964 20.2673 18.0964C20.5059 18.0964 21.186 18.2856 21.2035 17.8479C21.212 17.6347 21.3075 17.4277 21.3075 17.2122C21.3075 16.9208 21.1331 17.047 20.8394 16.9001" stroke="#00ADB5" stroke-linecap="round" stroke-linejoin="round"/>
</svg>
